<svg width="80" height="23" viewBox="0 0 80 23" fill="none" xmlns="http://www.w3.org/2000/svg">
<g clip-path="url(#clip0_488_1801)">
<path d="M8.80483 20.929C5.07774 20.929 2.05616 17.8925 2.05616 14.147C2.05616 10.4015 5.07774 7.36502 8.80483 7.36502C12.5319 7.36502 15.5535 10.4015 15.5535 14.147C15.5535 17.8925 12.5319 20.929 8.80483 20.929ZM15.5535 19.8329V21.9645C15.5535 22.5335 16.013 23 16.5839 23C17.1548 23 17.6143 22.5382 17.6143 21.9645V14.147C17.6143 9.25876 13.6737 5.29871 8.80947 5.29871C3.94523 5.29871 0 9.25876 0 14.147C0 19.0353 3.94059 22.9953 8.80483 22.9953C11.5108 22.9953 13.9383 21.7686 15.5535 19.8329Z" fill="#9D9FA2"/>
<path d="M54.0635 1.03549C54.0635 1.60454 54.523 2.07098 55.0939 2.07098H65.6764C66.2426 2.07098 66.7068 1.60921 66.7068 1.03549C66.7068 0.461772 66.2473 0 65.6764 0H55.0939C54.5276 0 54.0635 0.461772 54.0635 1.03549Z" fill="#9D9FA2"/>
<path d="M55.5349 6.87998C55.5349 6.44153 55.2657 6.06838 54.8851 5.91445C53.8872 5.51798 52.8011 5.29876 51.664 5.29876C48.9626 5.29876 46.5444 6.52082 44.9292 8.44721V6.32492C44.9292 5.75587 44.4697 5.28943 43.8988 5.28943C43.3279 5.28943 42.8684 5.7512 42.8684 6.32492V21.9645C42.8684 22.5336 43.3279 23 43.8988 23C44.4697 23 44.9292 22.5383 44.9292 21.9645V13.7366C45.1381 10.1824 48.0761 7.36507 51.664 7.36507C52.5319 7.36507 53.3627 7.53299 54.1239 7.83151C54.2446 7.87815 54.3699 7.9108 54.5045 7.9108C55.0708 7.9108 55.5349 7.44903 55.5349 6.87531" fill="#9D9FA2"/>
<path d="M36.6814 13.6526H23.2212C23.4718 10.1403 26.3913 7.36502 29.9513 7.36502C33.5113 7.36502 36.4308 10.1357 36.6814 13.6526ZM38.7376 14.7487C38.7515 14.5528 38.7561 14.3522 38.7561 14.147C38.7561 9.25876 34.8155 5.29871 29.9513 5.29871C25.0871 5.29871 21.1465 9.25876 21.1465 14.147C21.1465 19.0353 25.0871 22.9953 29.9513 22.9953C31.534 22.9953 33.0147 22.5755 34.2957 21.8432C34.602 21.666 34.8109 21.3301 34.8109 20.9477C34.8109 20.3786 34.3514 19.9122 33.7805 19.9122C33.5948 19.9122 33.4185 19.9635 33.2653 20.0521C32.286 20.6118 31.1534 20.929 29.9467 20.929C26.758 20.929 24.0892 18.7088 23.3837 15.7189H37.7072C38.2549 15.7189 38.7004 15.2898 38.7329 14.7441" fill="#9D9FA2"/>
<path d="M79.9906 21.9598C79.9906 21.3908 79.5311 20.9243 78.9602 20.9243H68.6562L79.7725 7.09448C80.1252 6.65137 80.0556 5.99835 79.61 5.64386C79.5915 5.62987 79.5682 5.61121 79.5497 5.59722C79.5404 5.59255 79.5358 5.58789 79.5265 5.58323C79.364 5.47595 79.1691 5.41064 78.9602 5.41064H66.5026C65.9363 5.41064 65.4722 5.87242 65.4722 6.44613C65.4722 7.01985 65.9317 7.48162 66.5026 7.48162H76.8298L65.7785 21.2275C65.5882 21.4141 65.4722 21.6753 65.4722 21.9645C65.4722 22.5242 65.9178 22.9813 66.4701 22.9953C66.4701 22.9953 66.4794 22.9953 66.484 22.9953C66.4886 22.9953 66.4933 22.9953 66.5026 22.9953H78.9602C79.5265 22.9953 79.9906 22.5335 79.9906 21.9598Z" fill="#9D9FA2"/>
<path d="M60.2831 5.29409C59.7168 5.29409 59.2527 5.75587 59.2527 6.32958V21.9692C59.2527 22.5383 59.7122 23.0047 60.2831 23.0047C60.854 23.0047 61.3135 22.5429 61.3135 21.9692V6.32492C61.3135 5.75587 60.854 5.28943 60.2831 5.28943" fill="#9D9FA2"/>
</g>
<defs>
<clipPath id="clip0_488_1801">
<rect width="80" height="23" fill="white"/>
</clipPath>
</defs>
</svg>
